<svg width="1140" height="917" viewBox="0 0 1140 917" fill="none" xmlns="http://www.w3.org/2000/svg"><mask id="mask0_1_167" style="mask-type:alpha" maskUnits="userSpaceOnUse" x="0" y="0" width="1140" height="917"><rect width="1140" height="917" fill="#0B7572"/></mask><g mask="url(#mask0_1_167)"><path d="M651.253 861.714C604.228 845.197 517.891 784.041 517.891 767.248C517.891 764.377 507.171 743.654 494.068 721.198C479.43 696.11 462.765 650.622 450.846 603.22C433.355 533.658 431.517 514.864 432.157 412.103C432.769 313.712 431.391 298.134 422.071 298.134C404.372 298.134 284.71 326.266 271.589 333.512C264.913 337.198 254.876 340.215 249.284 340.215C228.338 340.215 231.837 353.838 255.702 365.201L280.426 376.973L276.801 416.455C274.808 438.17 271.369 464.616 269.159 475.224C264.405 498.043 263.165 497.875 326.558 483.001C381.467 470.117 399.783 472.692 394.603 492.568C391.97 502.67 379.611 507.365 338.285 513.962C270.518 524.781 263.649 530.472 269.021 571.355C271.324 588.88 275.145 644.942 277.511 695.937L281.813 788.654L263.266 797.133C225.524 814.388 196.324 788.897 176.78 721.635C165.95 684.363 166.013 683.874 181.624 683.874C198.874 683.874 203.129 671.293 208.202 605.292L212.404 550.619L181.66 551.152C164.752 551.446 140.098 555.608 126.874 560.402C101.344 569.658 89.7389 585.686 108.568 585.686C141.362 585.686 142.302 705.745 109.678 727.601C93.6221 738.358 70.6074 732.59 59.0662 714.917C47.8277 697.707 48.0242 695.337 63.2814 664.07C97.6049 593.73 95.0542 574.6 51.7095 577.284C-2.33782 580.63 4.39682 567.041 64.6486 551.176C150.385 528.599 146.697 530.955 125.34 512.415C106.359 495.938 84.5121 459.764 84.5121 444.812C84.5121 438.997 93.9271 437.791 115.814 440.801C159.883 446.862 174.998 458.35 180 489.582C183.117 509.05 187.3 515.627 195.551 514.033C209.087 511.418 211.676 479.036 202.429 428.006C192.63 373.928 186.302 370.539 121.303 384.553C56.7376 398.474 54.6279 398.608 57.9619 388.572C60.9143 379.685 72.8258 375.019 234.797 319.292C300.153 296.806 375.233 270.222 401.641 260.217C451.915 241.17 508.467 236.472 532.45 249.35C545.781 256.509 545.717 257.184 529.631 279.158C520.579 291.523 507.941 313.168 501.548 327.256C489.642 353.491 475.054 437.631 480.738 447.279C482.477 450.233 485.588 472.325 487.649 496.374C492.083 548.098 531.3 672.136 555.26 710.218C572.18 737.112 618.248 782.063 628.89 782.063C640.557 782.063 671.67 733.675 671.67 715.53C671.67 693.086 687.128 706.523 703.166 742.908C721.156 783.725 722.939 829.163 707.66 857.458C697.721 875.864 692.631 876.248 651.253 861.714ZM384.335 697.265C361.671 684.929 290.875 616.847 290.61 607.134C290.551 604.981 287.877 599.065 284.667 593.986C275.199 579.005 283.497 577.275 326.73 585.215C381.013 595.184 420.492 623.098 433.597 660.777C441.936 684.751 442.089 691.642 434.489 700.831C422.918 714.82 415.632 714.302 384.335 697.265ZM299.255 415.609C301.297 399.215 304.993 383.529 307.468 380.752C311.743 375.954 382.672 391.567 389.999 398.919C397.628 406.573 383.79 415.884 352.059 424.448C333.699 429.403 315.688 436.148 312.036 439.437C298.955 451.216 295.599 444.958 299.255 415.609ZM161.402 242.47C167.169 239.092 198.624 228.343 231.302 218.584C263.98 208.824 309.589 192.823 332.656 183.025C375.506 164.824 401.456 161.501 440.127 169.261C472.293 175.716 466.755 190.634 428.769 199.859C410.507 204.293 370.402 213.862 339.646 221.122C308.89 228.382 272.738 237.634 259.308 241.681C229.248 250.739 146.144 251.409 161.402 242.47ZM121.21 185.7C101.293 177.667 101.456 175.762 124.705 144.819C169.383 85.3538 198.66 22.5304 194.607 -5.17968L191.562 -26L224.843 -21.5702C243.147 -19.1339 268.059 -13.6655 280.202 -9.41827C299.411 -2.69944 301.702 0.696472 297.834 16.7164C292.447 39.0273 251.513 108.77 243.805 108.77C240.773 108.77 238.292 113.564 238.292 119.424C238.292 134.031 260.578 127.848 343.966 90.105C414.578 58.1455 455.563 51.8065 479.246 69.1819C502.559 86.2863 487.833 101.757 448.238 101.757C428.91 101.757 394.998 107.79 372.877 115.164C350.756 122.538 306.251 132.463 273.977 137.22C238.762 142.41 210.718 150.463 203.846 157.359C193.71 167.528 145.766 193.652 139.376 192.487C138.034 192.243 129.86 189.188 121.21 185.7Z" fill="white" fill-opacity="0.08"/></g></svg>