<svg xmlns="http://www.w3.org/2000/svg" xmlns:xlink="http://www.w3.org/1999/xlink"><symbol id="ig" viewBox="0 0 22 22"><path d="M16.0448 0H5.9552C2.67145 0 0 2.67145 0 5.9552V16.045C0 19.3286 2.67145 22 5.9552 22H16.045C19.3286 22 22 19.3286 22 16.045V5.9552C22 2.67145 19.3286 0 16.0448 0V0ZM11 17.0155C7.68301 17.0155 4.98454 14.317 4.98454 11C4.98454 7.68301 7.68301 4.98454 11 4.98454C14.317 4.98454 17.0155 7.68301 17.0155 11C17.0155 14.317 14.317 17.0155 11 17.0155ZM17.1593 6.40318C16.1791 6.40318 15.3818 5.60591 15.3818 4.62569C15.3818 3.64546 16.1791 2.84802 17.1593 2.84802C18.1395 2.84802 18.937 3.64546 18.937 4.62569C18.937 5.60591 18.1395 6.40318 17.1593 6.40318Z"/><path d="M10.9999 7.33325C8.97819 7.33325 7.33325 8.97806 7.33325 10.9999C7.33325 13.0216 8.97819 14.6665 10.9999 14.6665C13.0217 14.6665 14.6665 13.0216 14.6665 10.9999C14.6665 8.97806 13.0217 7.33325 10.9999 7.33325Z"/><path d="M17.159 4.1377C16.8901 4.1377 16.6713 4.35657 16.6713 4.62546C16.6713 4.89435 16.8901 5.11322 17.159 5.11322C17.4281 5.11322 17.647 4.89452 17.647 4.62546C17.647 4.3564 17.4281 4.1377 17.159 4.1377Z"/></symbol><symbol id="in" viewBox="0 0 23 23"><path d="M22.9943 23V22.9991H23V14.7017C23 10.6425 22.1173 7.51569 17.3242 7.51569C15.02 7.51569 13.4737 8.76755 12.8425 9.95438H12.7758V7.89464H8.2312V22.9991H12.9634V15.5199C12.9634 13.5507 13.3404 11.6465 15.8036 11.6465C18.2307 11.6465 18.2668 13.8938 18.2668 15.6462V23H22.9943Z"/><path d="M0.377197 7.89471H5.11509V22.9991H0.377197V7.89471Z"/><path d="M2.74409 0C1.22922 0 0 1.21699 0 2.71678C0 4.21657 1.22922 5.45901 2.74409 5.45901C4.25896 5.45901 5.48818 4.21657 5.48818 2.71678C5.48723 1.21699 4.25801 0 2.74409 0V0Z"/></symbol><symbol id="vk" viewBox="0 0 33 19"><path d="M27.3841 10.8951C26.8506 10.2301 27.0032 9.93429 27.3841 9.33986C27.3909 9.33307 31.7952 3.32636 32.249 1.28929L32.2517 1.28793C32.4772 0.545571 32.2517 0 31.1613 0H27.5532C26.6347 0 26.2112 0.468214 25.9843 0.992071C25.9843 0.992071 24.1472 5.33221 21.5484 8.14557C20.7096 8.9585 20.3218 9.21907 19.8639 9.21907C19.6384 9.21907 19.2878 8.9585 19.2878 8.21614V1.28793C19.2878 0.397643 19.0307 0 18.2703 0H12.5968C12.0207 0 11.6783 0.415286 11.6783 0.802072C11.6783 1.64621 12.9777 1.84029 13.1125 4.21529V9.36836C13.1125 10.4975 12.9048 10.7051 12.4442 10.7051C11.2176 10.7051 8.24066 6.34736 6.47647 1.35986C6.12034 0.392214 5.77245 0.00135704 4.84704 0.00135704H1.23754C0.207632 0.00135704 0 0.469571 0 0.993428C0 1.919 1.22654 6.52107 5.7037 12.6011C8.68755 16.7512 12.8897 19 16.7123 19C19.01 19 19.2905 18.5006 19.2905 17.6415C19.2905 13.6759 19.0829 13.3014 20.2338 13.3014C20.7673 13.3014 21.6859 13.5619 23.8309 15.5637C26.2827 17.9374 26.6856 19 28.0578 19H31.666C32.6945 19 33.2156 18.5006 32.9159 17.5153C32.2297 15.4429 27.5931 11.1801 27.3841 10.8951Z"/></symbol></svg>